<svg xmlns="http://www.w3.org/2000/svg" viewBox="0 0 128 128">
  <defs>
    <linearGradient id="petal" x1="0" y1="0" x2="1" y2="1">
      <stop stop-color="#ffb7cf"/>
      <stop offset="1" stop-color="#ed709f"/>
    </linearGradient>
  </defs>
  <rect width="128" height="128" rx="30" fill="#fff4f8"/>
  <path d="M25 31h78v12H25zm6 19h66v53H31z" fill="#7a4359"/>
  <path d="M42 58h13v36H42zm20-7h14v43H62zm21 14h8v29h-8z" fill="url(#petal)"/>
  <path d="M94 20c9 2 12 10 7 17-8 0-13-5-12-12-5 5-11 5-16 0 1-8 8-12 15-9 1-7 6-11 12-12 5 6 3 13-6 16z" fill="url(#petal)"/>
</svg>
